<?xml version="1.0" encoding="UTF-8" standalone="no"?>
<!-- Created with Inkscape (http://www.inkscape.org/) -->

<svg
   xmlns:dc="http://purl.org/dc/elements/1.1/"
   xmlns:cc="http://creativecommons.org/ns#"
   xmlns:rdf="http://www.w3.org/1999/02/22-rdf-syntax-ns#"
   xmlns:svg="http://www.w3.org/2000/svg"
   xmlns="http://www.w3.org/2000/svg"
   xmlns:sodipodi="http://sodipodi.sourceforge.net/DTD/sodipodi-0.dtd"
   xmlns:inkscape="http://www.inkscape.org/namespaces/inkscape"
   version="1.1"
   id="svg2"
   xml:space="preserve"
   width="297.31638"
   height="116.52543"
   viewBox="0 0 297.31638 116.52543"
   sodipodi:docname="logo-white.svg"
   inkscape:version="0.92.2 (5c3e80d, 2017-08-06)"><metadata
     id="metadata8"><rdf:RDF><cc:Work
         rdf:about=""><dc:format>image/svg+xml</dc:format><dc:type
           rdf:resource="http://purl.org/dc/dcmitype/StillImage" /><dc:title></dc:title></cc:Work></rdf:RDF></metadata><defs
     id="defs6"><clipPath
       clipPathUnits="userSpaceOnUse"
       id="clipPath20"><path
         d="M 0,500 H 500 V 0 H 0 Z"
         id="path18"
         inkscape:connector-curvature="0" /></clipPath><filter
       inkscape:collect="always"
       style="color-interpolation-filters:sRGB"
       id="filter4565"
       x="-0.083515441"
       width="1.1670309"
       y="-0.2130909"
       height="1.4261818"><feGaussianBlur
         inkscape:collect="always"
         stdDeviation="7.7595341"
         id="feGaussianBlur4567" /></filter></defs><sodipodi:namedview
     pagecolor="#ffffff"
     bordercolor="#666666"
     borderopacity="1"
     objecttolerance="10"
     gridtolerance="10"
     guidetolerance="10"
     inkscape:pageopacity="0"
     inkscape:pageshadow="2"
     inkscape:window-width="1869"
     inkscape:window-height="1016"
     id="namedview4"
     showgrid="false"
     inkscape:zoom="1.416"
     inkscape:cx="110.76073"
     inkscape:cy="-95.275935"
     inkscape:window-x="51"
     inkscape:window-y="1227"
     inkscape:window-maximized="1"
     inkscape:current-layer="layer1"
     fit-margin-top="0"
     fit-margin-left="0"
     fit-margin-right="0"
     fit-margin-bottom="0" /><g
     inkscape:groupmode="layer"
     id="layer1"
     inkscape:label="Background"
     transform="matrix(1.3333333,0,0,-1.3333333,-186.44069,556.49718)"
     style="display:none"><rect
       style="fill:#2196f3;fill-opacity:1;stroke-width:0.75;filter:url(#filter4565)"
       id="rect837"
       width="222.98729"
       height="87.394073"
       x="139.83052"
       y="-417.37289"
       transform="scale(1,-1)" /></g><g
     id="g10"
     inkscape:groupmode="layer"
     inkscape:label="Acme Logos"
     transform="matrix(1.3333333,0,0,-1.3333333,-186.44069,556.49718)"
     style="display:inline"><g
       id="g4604"><g
         id="g14"><g
           clip-path="url(#clipPath20)"
           id="g16"><g
             transform="translate(160.7732,358.0641)"
             id="g22"><path
               inkscape:connector-curvature="0"
               id="path24"
               style="fill:#ffffff;fill-opacity:1;fill-rule:nonzero;stroke:none"
               d="M 0,0 7.753,7.753 H 23.501 L 29.54,-13.449 Z M -10.849,26.892 3.555,25.059 V 9.786 c 0,-0.148 0.017,-0.293 0.047,-0.432 L -3.256,2.496 Z M 3.555,29.159 -9.362,30.803 3.555,43.719 Z M 31.935,39.177 19.984,27.067 7.622,28.641 V 45.768 Z M 7.622,11.82 V 24.541 L 19.137,23.075 22.343,11.82 Z m 33.948,0 H 26.572 l -3.566,12.519 11.901,12.06 z M 33.081,-11.032 27.73,7.753 h 13.337 z m 13.11,21.35 -8.24,30.4 c -0.189,0.697 -0.734,1.242 -1.431,1.431 l -30.4,8.24 C 5.509,50.555 4.856,50.426 4.353,50.041 4.319,50.016 4.29,49.987 4.258,49.96 l -0.108,0.107 -19.319,-19.32 0.002,-0.002 c -0.042,-0.042 -0.084,-0.083 -0.123,-0.129 -0.444,-0.53 -0.589,-1.25 -0.383,-1.911 l 9.171,-29.468 c 0.173,-0.553 0.572,-1.006 1.1,-1.246 l 37.26,-16.965 c 0.27,-0.123 0.557,-0.183 0.842,-0.183 0.478,0 0.951,0.169 1.327,0.493 0.242,0.207 0.423,0.465 0.542,0.747 l 0.003,-0.002 11.237,26.43 c 0.011,0.014 0.024,0.026 0.034,0.04 0.385,0.503 0.513,1.156 0.348,1.767" /></g><g
             transform="translate(240.1839,379.9362)"
             id="g26"><path
               inkscape:connector-curvature="0"
               id="path28"
               style="fill:#ffffff;fill-opacity:1;fill-rule:nonzero;stroke:none"
               d="M 0,0 -3.369,-9.298 H 3.37 Z m 5.962,-17.01 -1.329,3.662 h -9.266 l -1.361,-3.662 h -5.249 L -2.884,4.601 H 2.884 L 11.21,-17.01 Z" /></g><g
             transform="translate(264.2239,373.7155)"
             id="g30"><path
               inkscape:connector-curvature="0"
               id="path32"
               style="fill:#ffffff;fill-opacity:1;fill-rule:nonzero;stroke:none"
               d="m 0,0 c 0,6.642 5.022,11.178 11.502,11.178 4.762,0 7.516,-2.592 9.039,-5.281 L 16.588,3.953 C 15.681,5.702 13.737,7.096 11.502,7.096 7.581,7.096 4.73,4.082 4.73,0 c 0,-4.082 2.851,-7.095 6.772,-7.095 2.235,0 4.179,1.36 5.086,3.143 l 3.953,-1.912 C 18.986,-8.553 16.264,-11.178 11.502,-11.178 5.022,-11.178 0,-6.642 0,0" /></g><g
             transform="translate(319.2705,362.9267)"
             id="g34"><path
               inkscape:connector-curvature="0"
               id="path36"
               style="fill:#ffffff;fill-opacity:1;fill-rule:nonzero;stroke:none"
               d="M 0,0 V 15.131 L -6.091,0 H -8.1 l -6.091,15.131 V 0 h -4.601 v 21.61 h 6.448 L -7.095,8.554 -1.847,21.61 h 6.48 L 4.633,0 Z" /></g><g
             transform="translate(341.1396,362.9267)"
             id="g38"><path
               inkscape:connector-curvature="0"
               id="path40"
               style="fill:#ffffff;fill-opacity:1;fill-rule:nonzero;stroke:none"
               d="M 0,0 V 21.61 H 15.293 V 17.561 H 4.601 V 12.992 H 15.066 V 8.942 H 4.601 V 4.05 H 15.293 V 0 Z" /></g><g
             transform="translate(160.7732,107.2868)"
             id="g42" /><g
             transform="translate(240.1839,129.1589)"
             id="g46" /><g
             transform="translate(264.2239,122.9382)"
             id="g50" /><g
             transform="translate(319.2705,112.1494)"
             id="g54" /><g
             transform="translate(341.1396,112.1494)"
             id="g58" /></g></g></g><rect
       style="fill:none;fill-opacity:1;stroke-width:0.75"
       id="rect4610"
       width="273.83475"
       height="99.046616"
       x="123.41103"
       y="-426.9068"
       transform="scale(1,-1)" /><rect
       style="fill:none;fill-opacity:1;stroke-width:0.75"
       id="rect4612"
       width="163.66527"
       height="85.275429"
       x="139.83052"
       y="-417.37289"
       transform="scale(1,-1)" /><rect
       style="fill:none;fill-opacity:1;stroke-width:0.75"
       id="rect4614"
       width="222.98729"
       height="87.394073"
       x="139.83052"
       y="-417.37289"
       transform="scale(1,-1)" /></g></svg>